<svg width="154" height="154" viewBox="0 0 154 154" fill="none" xmlns="http://www.w3.org/2000/svg">
<rect width="154" height="154" rx="40" fill="#1F1D2B"/>
<path d="M137 77.5C137 110.361 110.361 137 77.5 137C44.6391 137 18 110.361 18 77.5C18 44.6391 44.6391 18 77.5 18C110.361 18 137 44.6391 137 77.5ZM27.5313 77.5C27.5313 105.097 49.9031 127.469 77.5 127.469C105.097 127.469 127.469 105.097 127.469 77.5C127.469 49.9031 105.097 27.5313 77.5 27.5313C49.9031 27.5313 27.5313 49.9031 27.5313 77.5Z" fill="#38ABBE"/>
<path d="M40.0625 81.8438C40.0625 76.5729 41.2396 72.375 43.5938 69.25C45.9688 66.125 49.2083 64.5625 53.3125 64.5625C56.6042 64.5625 59.3229 65.7917 61.4688 68.25V51H70.5312V99H62.375L61.9375 95.4062C59.6875 98.2188 56.7917 99.625 53.25 99.625C49.2708 99.625 46.0729 98.0625 43.6562 94.9375C41.2604 91.7917 40.0625 87.4271 40.0625 81.8438ZM49.0938 82.5C49.0938 85.6667 49.6458 88.0938 50.75 89.7812C51.8542 91.4688 53.4583 92.3125 55.5625 92.3125C58.3542 92.3125 60.3229 91.1354 61.4688 88.7812V75.4375C60.3438 73.0833 58.3958 71.9062 55.625 71.9062C51.2708 71.9062 49.0938 75.4375 49.0938 82.5ZM78.3578 99V53.5H94.2953C99.8162 53.5 104.004 54.5625 106.858 56.6875C109.712 58.7917 111.139 61.8854 111.139 65.9688C111.139 68.1979 110.566 70.1667 109.42 71.875C108.275 73.5625 106.681 74.8021 104.639 75.5938C106.972 76.1771 108.806 77.3542 110.139 79.125C111.493 80.8958 112.17 83.0625 112.17 85.625C112.17 90 110.775 93.3125 107.983 95.5625C105.191 97.8125 101.212 98.9583 96.0453 99H78.3578ZM87.7328 79.1875V91.4688H95.7641C97.9724 91.4688 99.6912 90.9479 100.92 89.9062C102.17 88.8438 102.795 87.3854 102.795 85.5312C102.795 81.3646 100.639 79.25 96.3266 79.1875H87.7328ZM87.7328 72.5625H94.6703C99.3995 72.4792 101.764 70.5938 101.764 66.9062C101.764 64.8438 101.16 63.3646 99.9516 62.4688C98.7641 61.5521 96.8787 61.0938 94.2953 61.0938H87.7328V72.5625Z" fill="#38ABBE"/>
</svg>
